<svg width="100%" viewBox="0 0 680 480" role="img" xmlns="http://www.w3.org/2000/svg">
<title>Yara em um templo em ruínas sob um céu sem sol</title>
<desc>Uma guardiã solitária diante de um altar de pedra iluminado por luz azul fria, com um mapa translúcido se formando na poeira, sob um céu noturno perpétuo.</desc>
<defs>
<linearGradient id="sky1" x1="0" y1="0" x2="0" y2="1">
<stop offset="0%" stop-color="#0a0e2a"/>
<stop offset="60%" stop-color="#161b3d"/>
<stop offset="100%" stop-color="#232a52"/>
</linearGradient>
</defs>
<rect x="0" y="0" width="680" height="480" fill="url(#sky1)"/>
<circle cx="120" cy="70" r="1.5" fill="#cdd6f5"/>
<circle cx="200" cy="40" r="1" fill="#cdd6f5"/>
<circle cx="560" cy="60" r="1.5" fill="#cdd6f5"/>
<circle cx="480" cy="30" r="1" fill="#cdd6f5"/>
<circle cx="620" cy="90" r="1" fill="#cdd6f5"/>
<circle cx="80" cy="120" r="1" fill="#cdd6f5"/>
<circle cx="340" cy="50" r="1.5" fill="#cdd6f5"/>
<polygon points="0,300 90,200 180,300" fill="#141834"/>
<polygon points="140,300 260,170 380,300" fill="#191f42"/>
<polygon points="330,300 470,190 610,300" fill="#141834"/>
<polygon points="540,300 680,220 680,300" fill="#191f42"/>
<rect x="0" y="290" width="680" height="190" fill="#0e1230"/>
<rect x="230" y="250" width="30" height="230" fill="#2b3160"/>
<rect x="420" y="250" width="30" height="230" fill="#2b3160"/>
<rect x="230" y="240" width="220" height="20" fill="#3a4180"/>
<rect x="290" y="330" width="100" height="60" rx="4" fill="#3a4180"/>
<ellipse cx="340" cy="330" rx="60" ry="14" fill="#6d7fe0" opacity="0.5"/>
<path d="M310 330 Q340 300 370 330" stroke="#9fb0f0" stroke-width="2" fill="none" opacity="0.7"/>
<path d="M300 335 Q340 295 380 335" stroke="#7d8fe5" stroke-width="1.2" fill="none" opacity="0.5"/>
<circle cx="330" cy="410" r="34" fill="#1c2350"/>
<circle cx="330" cy="376" r="16" fill="#242b58"/>
<path d="M300 480 L330 400 L360 480 Z" fill="#20264e"/>
<rect x="322" y="392" width="16" height="10" fill="#3a4180"/>
</svg>
