<svg width="100%" viewBox="0 0 680 440" role="img" xmlns="http://www.w3.org/2000/svg">
<title>O equilíbrio restaurado entre Solvarah e Nyth, dividindo o céu em dia e noite</title>
<desc>Um céu dividido ao meio, metade dourado com um sol suave, metade azul-arroxeado com uma lua e estrelas, com Yara em pé no horizonte entre as duas metades.</desc>
<rect x="0" y="0" width="340" height="440" fill="#7fa8d8"/>
<rect x="340" y="0" width="340" height="440" fill="#161a30"/>
<circle cx="170" cy="150" r="70" fill="#ffe3a0"/>
<circle cx="170" cy="150" r="100" fill="#ffe3a0" opacity="0.3"/>
<circle cx="510" cy="140" r="55" fill="#e6e8f5"/>
<circle cx="490" cy="130" r="55" fill="#161a30"/>
<circle cx="440" cy="60" r="1.4" fill="#d8ddf5"/>
<circle cx="600" cy="90" r="1.2" fill="#d8ddf5"/>
<circle cx="560" cy="200" r="1" fill="#d8ddf5"/>
<circle cx="620" cy="180" r="1.4" fill="#d8ddf5"/>
<rect x="0" y="340" width="680" height="100" fill="#2c3550"/>
<polygon points="0,340 200,300 340,340" fill="#3f4b6e" opacity="0.7"/>
<polygon points="340,340 480,290 680,340" fill="#232a44" opacity="0.7"/>
<circle cx="340" cy="390" r="36" fill="#20263e"/>
<circle cx="340" cy="358" r="16" fill="#262d48"/>
<path d="M310 440 L338 380 L342 380 L370 440 Z" fill="#1a1f34"/>
</svg>
